{"title":"Dark Places (Lugares Ocultos) 2015 [720p][Spanish]","uid":12833215,"size":1533099574,"categoryP":"video","categoryS":"movies","magnet":"?xt=urn:btih:29461cfb64176a367950d01c7646e31e64d0427f&amp;dn=Dark+Places+%28Lugares+Ocultos%29+2015+%5B720p%5D%5BSpanish%5D&amp;tr=udp%3A%2F%2Ftracker.leechers-paradise.org%3A6969&amp;tr=udp%3A%2F%2Fzer0day.ch%3A1337&amp;tr=udp%3A%2F%2Fopen.demonii.com%3A1337&amp;tr=udp%3A%2F%2Ftracker.coppersurfer.tk%3A6969&amp;tr=udp%3A%2F%2Fexodus.desync.com%3A6969","seeders":0,"leechers":1,"uploader":"buker10","files":1,"time":1448412954,"description":"General\r\nComplete name                            : Lugares Ocultos.m4v\r\nFormat                                   : MPEG-4\r\nFormat profile                           : Base Media / Version 2\r\nCodec ID                                 : mp42\r\nFile size                                : 1.43 GiB\r\nDuration                                 : 1h 52mn\r\nOverall bit rate mode                    : Variable\r\nOverall bit rate                         : 1 819 Kbps\r\nEncoded date                             : UTC 2015-09-05 22:12:45\r\nTagged date                              : UTC 2015-09-05 22:42:56\r\n\r\nVideo\r\nID                                       : 1\r\nFormat                                   : AVC\r\nFormat/Info                              : Advanced Video Codec\r\nFormat profile                           :   \r\nFormat settings, CABAC                   : Yes\r\nFormat settings, ReFrames                : 2 frames\r\nCodec ID                                 : avc1\r\nCodec ID/Info                            : Advanced Video Coding\r\nDuration                                 : 1h 52mn\r\nBit rate mode                            : Variable\r\nBit rate                                 : 1 700 Kbps\r\nWidth                                    : 1 280 pixels\r\nHeight                                   : 534 pixels\r\nDisplay aspect ratio                     : 2.40:1\r\nFrame rate mode                          : Constant\r\nFrame rate                               : 24.000 fps\r\nColor space                              : YUV\r\nChroma subsampling                       : 4:2:0\r\nBit depth                                : 8 bits\r\nScan type                                : Progressive\r\nBits/(Pixel*Frame)                       : 0.104\r\nStream size                              : 1.30 GiB (91%)\r\nWriting library                          : x264 core 120\r\n\r\nAudio\r\nID                                       : 2\r\nFormat                                   : AAC\r\nFormat/Info                              : Advanced Audio Codec\r\nFormat profile                           : LC\r\nCodec ID                                 : 40\r\nDuration                                 : 1h 52mn\r\nBit rate mode                            : Variable\r\nBit rate                                 : 160 Kbps\r\nMaximum bit rate                         : 275 Kbps\r\nChannel(s)                               : 2 channels\r\nChannel positions                        : Front: L R\r\nSampling rate                            : 48.0 KHz\r\nCompression mode                         : Lossy\r\nDelay relative to video                  : -42ms\r\nStream size                              : 129 MiB (9%)\r\nLanguage                                 : Spanish\r\nEncoded date                             : UTC 2015-09-05 22:12:45\r\nTagged date                              : UTC 2015-09-05 22:42:55","torrent":{"xt":"urn:btih:29461cfb64176a367950d01c7646e31e64d0427f","amp;dn":"Dark+Places+%28Lugares+Ocultos%29+2015+%5B720p%5D%5BSpanish%5D","amp;tr":["udp%3A%2F%2Ftracker.leechers-paradise.org%3A6969","udp%3A%2F%2Fzer0day.ch%3A1337","udp%3A%2F%2Fopen.demonii.com%3A1337","udp%3A%2F%2Ftracker.coppersurfer.tk%3A6969","udp%3A%2F%2Fexodus.desync.com%3A6969"],"infoHash":"29461cfb64176a367950d01c7646e31e64d0427f","infoHashBuffer":{"type":"Buffer","data":[41,70,28,251,100,23,106,54,121,80,208,28,118,70,227,30,100,208,66,127]},"announce":[],"urlList":[]}}